<?xml version="1.0" encoding="UTF-8" standalone="no"?>
<!-- Created with Inkscape (http://www.inkscape.org/) -->

<svg
   xmlns:dc="http://purl.org/dc/elements/1.1/"
   xmlns:cc="http://creativecommons.org/ns#"
   xmlns:rdf="http://www.w3.org/1999/02/22-rdf-syntax-ns#"
   xmlns:svg="http://www.w3.org/2000/svg"
   xmlns="http://www.w3.org/2000/svg"
   xmlns:sodipodi="http://sodipodi.sourceforge.net/DTD/sodipodi-0.dtd"
   xmlns:inkscape="http://www.inkscape.org/namespaces/inkscape"
   id="svg3355"
   version="1.1"
   inkscape:version="0.91 r13725"
   xml:space="preserve"
   width="1315"
   height="421.25"
   viewBox="0 0 1315 421.25"
   sodipodi:docname="registrationFrameworkTransformations.svg"><metadata
     id="metadata3361"><rdf:RDF><cc:Work
         rdf:about=""><dc:format>image/svg+xml</dc:format><dc:type
           rdf:resource="http://purl.org/dc/dcmitype/StillImage" /><dc:title></dc:title></cc:Work></rdf:RDF></metadata><defs
     id="defs3359"><clipPath
       clipPathUnits="userSpaceOnUse"
       id="clipPath3371"><path
         d="m 0,0 1052,0 0,337 L 0,337 0,0 Z"
         id="path3373"
         inkscape:connector-curvature="0" /></clipPath><clipPath
       clipPathUnits="userSpaceOnUse"
       id="clipPath3449"><path
         d="m 0.9,0.66 1050,0 0,335 -1050,0 0,-335 z"
         id="path3451"
         inkscape:connector-curvature="0" /></clipPath><clipPath
       clipPathUnits="userSpaceOnUse"
       id="clipPath3461"><path
         d="m 0,0 1052,0 0,337 L 0,337 0,0 Z"
         id="path3463"
         inkscape:connector-curvature="0" /></clipPath><clipPath
       clipPathUnits="userSpaceOnUse"
       id="clipPath3541"><path
         d="m 0.9,0.66 1050,0 0,335 -1050,0 0,-335 z"
         id="path3543"
         inkscape:connector-curvature="0" /></clipPath><clipPath
       clipPathUnits="userSpaceOnUse"
       id="clipPath3553"><path
         d="m 0.9,0.66 1050,0 0,335 -1050,0 0,-335 z m 214.44,124.42 -2.88,-7.92 12.66,-4.62 2.88,7.92 -8.76,-4.5 -3.9,9.12"
         id="path3555"
         inkscape:connector-curvature="0"
         style="clip-rule:evenodd" /></clipPath><clipPath
       clipPathUnits="userSpaceOnUse"
       id="clipPath3559"><path
         d="m 0.9,0.66 1050,0 0,335 -1050,0 0,-335 z"
         id="path3561"
         inkscape:connector-curvature="0" /></clipPath><clipPath
       clipPathUnits="userSpaceOnUse"
       id="clipPath3569"><path
         d="m 0,0 1052,0 0,337 L 0,337 0,0 Z"
         id="path3571"
         inkscape:connector-curvature="0" /></clipPath><clipPath
       clipPathUnits="userSpaceOnUse"
       id="clipPath3579"><path
         d="m 0.9,0.66 1050,0 0,335 -1050,0 0,-335 z m 680.94,106.6 -1.56,-8.34 13.26,-2.46 1.56,8.34 -7.92,-5.88 -5.34,8.34"
         id="path3581"
         inkscape:connector-curvature="0"
         style="clip-rule:evenodd" /></clipPath><clipPath
       clipPathUnits="userSpaceOnUse"
       id="clipPath3585"><path
         d="m 0.9,0.66 1050,0 0,335 -1050,0 0,-335 z"
         id="path3587"
         inkscape:connector-curvature="0" /></clipPath><clipPath
       clipPathUnits="userSpaceOnUse"
       id="clipPath3595"><path
         d="m 0,0 1052,0 0,337 L 0,337 0,0 Z"
         id="path3597"
         inkscape:connector-curvature="0" /></clipPath><clipPath
       clipPathUnits="userSpaceOnUse"
       id="clipPath3605"><path
         d="m 0.9,0.66 1050,0 0,335 -1050,0 0,-335 z m 761.76,103.06 1.74,-8.28 13.2,2.76 -1.74,8.28 -5.1,-8.46 -8.1,5.7"
         id="path3607"
         inkscape:connector-curvature="0"
         style="clip-rule:evenodd" /></clipPath><clipPath
       clipPathUnits="userSpaceOnUse"
       id="clipPath3611"><path
         d="m 0.9,0.66 1050,0 0,335 -1050,0 0,-335 z"
         id="path3613"
         inkscape:connector-curvature="0" /></clipPath><clipPath
       clipPathUnits="userSpaceOnUse"
       id="clipPath3621"><path
         d="m 0,0 1052,0 0,337 L 0,337 0,0 Z"
         id="path3623"
         inkscape:connector-curvature="0" /></clipPath></defs><sodipodi:namedview
     pagecolor="#ffffff"
     bordercolor="#666666"
     borderopacity="1"
     objecttolerance="10"
     gridtolerance="10"
     guidetolerance="10"
     inkscape:pageopacity="0"
     inkscape:pageshadow="2"
     inkscape:window-width="2140"
     inkscape:window-height="931"
     id="namedview3357"
     showgrid="false"
     inkscape:zoom="1.01673"
     inkscape:cx="657.5"
     inkscape:cy="210.625"
     inkscape:window-x="0"
     inkscape:window-y="0"
     inkscape:window-maximized="0"
     inkscape:current-layer="g3363" /><g
     id="g3363"
     inkscape:groupmode="layer"
     inkscape:label="registrationFrameworkTransformations"
     transform="matrix(1.25,0,0,-1.25,0,421.25)"><g
       id="g3365" /><g
       id="g3367"><g
         id="g3369"
         clip-path="url(#clipPath3371)"><path
           d="m 50.4,67.8 c 0,-1.987 -1.613,-3.6 -3.6,-3.6 -1.987,0 -3.6,1.613 -3.6,3.6 0,1.987 1.613,3.6 3.6,3.6 1.987,0 3.6,-1.613 3.6,-3.6 z"
           style="fill:#000000;fill-opacity:1;fill-rule:evenodd;stroke:#000000;stroke-width:0.44999999;stroke-linecap:butt;stroke-linejoin:miter;stroke-miterlimit:10;stroke-dasharray:none;stroke-opacity:1"
           id="path3375"
           inkscape:connector-curvature="0" /><path
           d="m 76.56,66.84 c 0,-1.987 -1.613,-3.6 -3.6,-3.6 -1.987,0 -3.6,1.613 -3.6,3.6 0,1.987 1.613,3.6 3.6,3.6 1.987,0 3.6,-1.613 3.6,-3.6 z"
           style="fill:#000000;fill-opacity:1;fill-rule:evenodd;stroke:#000000;stroke-width:0.44999999;stroke-linecap:butt;stroke-linejoin:miter;stroke-miterlimit:10;stroke-dasharray:none;stroke-opacity:1"
           id="path3377"
           inkscape:connector-curvature="0" /><path
           d="m 104.4,66.84 c 0,-1.987 -1.613,-3.6 -3.6,-3.6 -1.987,0 -3.6,1.613 -3.6,3.6 0,1.987 1.613,3.6 3.6,3.6 1.987,0 3.6,-1.613 3.6,-3.6 z"
           style="fill:#000000;fill-opacity:1;fill-rule:evenodd;stroke:#000000;stroke-width:0.44999999;stroke-linecap:butt;stroke-linejoin:miter;stroke-miterlimit:10;stroke-dasharray:none;stroke-opacity:1"
           id="path3379"
           inkscape:connector-curvature="0" /><path
           d="m 137.76,66.84 c 0,-1.987 -1.613,-3.6 -3.6,-3.6 -1.987,0 -3.6,1.613 -3.6,3.6 0,1.987 1.613,3.6 3.6,3.6 1.987,0 3.6,-1.613 3.6,-3.6 z"
           style="fill:#000000;fill-opacity:1;fill-rule:evenodd;stroke:#000000;stroke-width:0.44999999;stroke-linecap:butt;stroke-linejoin:miter;stroke-miterlimit:10;stroke-dasharray:none;stroke-opacity:1"
           id="path3381"
           inkscape:connector-curvature="0" /><path
           d="m 171,66.84 c 0,-1.987 -1.613,-3.6 -3.6,-3.6 -1.987,0 -3.6,1.613 -3.6,3.6 0,1.987 1.613,3.6 3.6,3.6 1.987,0 3.6,-1.613 3.6,-3.6 z"
           style="fill:#000000;fill-opacity:1;fill-rule:evenodd;stroke:#000000;stroke-width:0.44999999;stroke-linecap:butt;stroke-linejoin:miter;stroke-miterlimit:10;stroke-dasharray:none;stroke-opacity:1"
           id="path3383"
           inkscape:connector-curvature="0" /><path
           d="m 201.6,66.84 c 0,-1.987 -1.613,-3.6 -3.6,-3.6 -1.987,0 -3.6,1.613 -3.6,3.6 0,1.987 1.613,3.6 3.6,3.6 1.987,0 3.6,-1.613 3.6,-3.6 z"
           style="fill:#000000;fill-opacity:1;fill-rule:evenodd;stroke:#000000;stroke-width:0.44999999;stroke-linecap:butt;stroke-linejoin:miter;stroke-miterlimit:10;stroke-dasharray:none;stroke-opacity:1"
           id="path3385"
           inkscape:connector-curvature="0" /><path
           d="m 227.76,66.84 c 0,-1.987 -1.613,-3.6 -3.6,-3.6 -1.987,0 -3.6,1.613 -3.6,3.6 0,1.987 1.613,3.6 3.6,3.6 1.987,0 3.6,-1.613 3.6,-3.6 z"
           style="fill:#000000;fill-opacity:1;fill-rule:evenodd;stroke:#000000;stroke-width:0.44999999;stroke-linecap:butt;stroke-linejoin:miter;stroke-miterlimit:10;stroke-dasharray:none;stroke-opacity:1"
           id="path3387"
           inkscape:connector-curvature="0" /><path
           d="m 257.4,66.84 c 0,-1.987 -1.613,-3.6 -3.6,-3.6 -1.987,0 -3.6,1.613 -3.6,3.6 0,1.987 1.613,3.6 3.6,3.6 1.987,0 3.6,-1.613 3.6,-3.6 z"
           style="fill:#000000;fill-opacity:1;fill-rule:evenodd;stroke:#000000;stroke-width:0.44999999;stroke-linecap:butt;stroke-linejoin:miter;stroke-miterlimit:10;stroke-dasharray:none;stroke-opacity:1"
           id="path3389"
           inkscape:connector-curvature="0" /><path
           d="m 288.96,66.84 c 0,-1.987 -1.613,-3.6 -3.6,-3.6 -1.987,0 -3.6,1.613 -3.6,3.6 0,1.987 1.613,3.6 3.6,3.6 1.987,0 3.6,-1.613 3.6,-3.6 z"
           style="fill:#000000;fill-opacity:1;fill-rule:evenodd;stroke:#000000;stroke-width:0.44999999;stroke-linecap:butt;stroke-linejoin:miter;stroke-miterlimit:10;stroke-dasharray:none;stroke-opacity:1"
           id="path3391"
           inkscape:connector-curvature="0" /><path
           d="m 103.56,96.6 c 0,-1.987 -1.613,-3.6 -3.6,-3.6 -1.987,0 -3.6,1.613 -3.6,3.6 0,1.987 1.613,3.6 3.6,3.6 1.987,0 3.6,-1.613 3.6,-3.6 z"
           style="fill:#000000;fill-opacity:1;fill-rule:evenodd;stroke:#000000;stroke-width:0.44999999;stroke-linecap:butt;stroke-linejoin:miter;stroke-miterlimit:10;stroke-dasharray:none;stroke-opacity:1"
           id="path3393"
           inkscape:connector-curvature="0" /><path
           d="m 129.6,95.64 c 0,-1.987 -1.613,-3.6 -3.6,-3.6 -1.987,0 -3.6,1.613 -3.6,3.6 0,1.987 1.613,3.6 3.6,3.6 1.987,0 3.6,-1.613 3.6,-3.6 z"
           style="fill:#000000;fill-opacity:1;fill-rule:evenodd;stroke:#000000;stroke-width:0.44999999;stroke-linecap:butt;stroke-linejoin:miter;stroke-miterlimit:10;stroke-dasharray:none;stroke-opacity:1"
           id="path3395"
           inkscape:connector-curvature="0" /><path
           d="m 157.56,95.64 c 0,-1.987 -1.613,-3.6 -3.6,-3.6 -1.987,0 -3.6,1.613 -3.6,3.6 0,1.987 1.613,3.6 3.6,3.6 1.987,0 3.6,-1.613 3.6,-3.6 z"
           style="fill:#000000;fill-opacity:1;fill-rule:evenodd;stroke:#000000;stroke-width:0.44999999;stroke-linecap:butt;stroke-linejoin:miter;stroke-miterlimit:10;stroke-dasharray:none;stroke-opacity:1"
           id="path3397"
           inkscape:connector-curvature="0" /><path
           d="m 190.8,95.64 c 0,-1.987 -1.613,-3.6 -3.6,-3.6 -1.987,0 -3.6,1.613 -3.6,3.6 0,1.987 1.613,3.6 3.6,3.6 1.987,0 3.6,-1.613 3.6,-3.6 z"
           style="fill:#000000;fill-opacity:1;fill-rule:evenodd;stroke:#000000;stroke-width:0.44999999;stroke-linecap:butt;stroke-linejoin:miter;stroke-miterlimit:10;stroke-dasharray:none;stroke-opacity:1"
           id="path3399"
           inkscape:connector-curvature="0" /><path
           d="m 224.16,95.64 c 0,-1.987 -1.613,-3.6 -3.6,-3.6 -1.987,0 -3.6,1.613 -3.6,3.6 0,1.987 1.613,3.6 3.6,3.6 1.987,0 3.6,-1.613 3.6,-3.6 z"
           style="fill:#000000;fill-opacity:1;fill-rule:evenodd;stroke:#000000;stroke-width:0.44999999;stroke-linecap:butt;stroke-linejoin:miter;stroke-miterlimit:10;stroke-dasharray:none;stroke-opacity:1"
           id="path3401"
           inkscape:connector-curvature="0" /><path
           d="m 254.76,95.64 c 0,-1.987 -1.613,-3.6 -3.6,-3.6 -1.987,0 -3.6,1.613 -3.6,3.6 0,1.987 1.613,3.6 3.6,3.6 1.987,0 3.6,-1.613 3.6,-3.6 z"
           style="fill:#000000;fill-opacity:1;fill-rule:evenodd;stroke:#000000;stroke-width:0.44999999;stroke-linecap:butt;stroke-linejoin:miter;stroke-miterlimit:10;stroke-dasharray:none;stroke-opacity:1"
           id="path3403"
           inkscape:connector-curvature="0" /><path
           d="m 280.8,95.64 c 0,-1.987 -1.613,-3.6 -3.6,-3.6 -1.987,0 -3.6,1.613 -3.6,3.6 0,1.987 1.613,3.6 3.6,3.6 1.987,0 3.6,-1.613 3.6,-3.6 z"
           style="fill:#000000;fill-opacity:1;fill-rule:evenodd;stroke:#000000;stroke-width:0.44999999;stroke-linecap:butt;stroke-linejoin:miter;stroke-miterlimit:10;stroke-dasharray:none;stroke-opacity:1"
           id="path3405"
           inkscape:connector-curvature="0" /><path
           d="m 310.56,95.64 c 0,-1.987 -1.613,-3.6 -3.6,-3.6 -1.987,0 -3.6,1.613 -3.6,3.6 0,1.987 1.613,3.6 3.6,3.6 1.987,0 3.6,-1.613 3.6,-3.6 z"
           style="fill:#000000;fill-opacity:1;fill-rule:evenodd;stroke:#000000;stroke-width:0.44999999;stroke-linecap:butt;stroke-linejoin:miter;stroke-miterlimit:10;stroke-dasharray:none;stroke-opacity:1"
           id="path3407"
           inkscape:connector-curvature="0" /><path
           d="m 342,95.64 c 0,-1.987 -1.613,-3.6 -3.6,-3.6 -1.987,0 -3.6,1.613 -3.6,3.6 0,1.987 1.613,3.6 3.6,3.6 1.987,0 3.6,-1.613 3.6,-3.6 z"
           style="fill:#000000;fill-opacity:1;fill-rule:evenodd;stroke:#000000;stroke-width:0.44999999;stroke-linecap:butt;stroke-linejoin:miter;stroke-miterlimit:10;stroke-dasharray:none;stroke-opacity:1"
           id="path3409"
           inkscape:connector-curvature="0" /><path
           d="m 154.8,123.6 c 0,-1.987 -1.613,-3.6 -3.6,-3.6 -1.987,0 -3.6,1.613 -3.6,3.6 0,1.987 1.613,3.6 3.6,3.6 1.987,0 3.6,-1.613 3.6,-3.6 z"
           style="fill:#000000;fill-opacity:1;fill-rule:evenodd;stroke:#000000;stroke-width:0.44999999;stroke-linecap:butt;stroke-linejoin:miter;stroke-miterlimit:10;stroke-dasharray:none;stroke-opacity:1"
           id="path3411"
           inkscape:connector-curvature="0" /><path
           d="m 180.96,122.64 c 0,-1.987 -1.613,-3.6 -3.6,-3.6 -1.987,0 -3.6,1.613 -3.6,3.6 0,1.987 1.613,3.6 3.6,3.6 1.987,0 3.6,-1.613 3.6,-3.6 z"
           style="fill:#000000;fill-opacity:1;fill-rule:evenodd;stroke:#000000;stroke-width:0.44999999;stroke-linecap:butt;stroke-linejoin:miter;stroke-miterlimit:10;stroke-dasharray:none;stroke-opacity:1"
           id="path3413"
           inkscape:connector-curvature="0" /><path
           d="m 208.8,122.64 c 0,-1.987 -1.613,-3.6 -3.6,-3.6 -1.987,0 -3.6,1.613 -3.6,3.6 0,1.987 1.613,3.6 3.6,3.6 1.987,0 3.6,-1.613 3.6,-3.6 z"
           style="fill:#000000;fill-opacity:1;fill-rule:evenodd;stroke:#000000;stroke-width:0.44999999;stroke-linecap:butt;stroke-linejoin:miter;stroke-miterlimit:10;stroke-dasharray:none;stroke-opacity:1"
           id="path3415"
           inkscape:connector-curvature="0" /><path
           d="m 242.16,122.64 c 0,-1.987 -1.613,-3.6 -3.6,-3.6 -1.987,0 -3.6,1.613 -3.6,3.6 0,1.987 1.613,3.6 3.6,3.6 1.987,0 3.6,-1.613 3.6,-3.6 z"
           style="fill:#000000;fill-opacity:1;fill-rule:evenodd;stroke:#000000;stroke-width:0.44999999;stroke-linecap:butt;stroke-linejoin:miter;stroke-miterlimit:10;stroke-dasharray:none;stroke-opacity:1"
           id="path3417"
           inkscape:connector-curvature="0" /><path
           d="m 275.4,122.64 c 0,-1.987 -1.613,-3.6 -3.6,-3.6 -1.987,0 -3.6,1.613 -3.6,3.6 0,1.987 1.613,3.6 3.6,3.6 1.987,0 3.6,-1.613 3.6,-3.6 z"
           style="fill:#000000;fill-opacity:1;fill-rule:evenodd;stroke:#000000;stroke-width:0.44999999;stroke-linecap:butt;stroke-linejoin:miter;stroke-miterlimit:10;stroke-dasharray:none;stroke-opacity:1"
           id="path3419"
           inkscape:connector-curvature="0" /><path
           d="m 306,122.64 c 0,-1.987 -1.613,-3.6 -3.6,-3.6 -1.987,0 -3.6,1.613 -3.6,3.6 0,1.987 1.613,3.6 3.6,3.6 1.987,0 3.6,-1.613 3.6,-3.6 z"
           style="fill:#000000;fill-opacity:1;fill-rule:evenodd;stroke:#000000;stroke-width:0.44999999;stroke-linecap:butt;stroke-linejoin:miter;stroke-miterlimit:10;stroke-dasharray:none;stroke-opacity:1"
           id="path3421"
           inkscape:connector-curvature="0" /><path
           d="m 332.1,122.64 c 0,-1.987 -1.613,-3.6 -3.6,-3.6 -1.987,0 -3.6,1.613 -3.6,3.6 0,1.987 1.613,3.6 3.6,3.6 1.987,0 3.6,-1.613 3.6,-3.6 z"
           style="fill:#000000;fill-opacity:1;fill-rule:evenodd;stroke:#000000;stroke-width:0.44999999;stroke-linecap:butt;stroke-linejoin:miter;stroke-miterlimit:10;stroke-dasharray:none;stroke-opacity:1"
           id="path3423"
           inkscape:connector-curvature="0" /><path
           d="m 361.8,122.64 c 0,-1.987 -1.613,-3.6 -3.6,-3.6 -1.987,0 -3.6,1.613 -3.6,3.6 0,1.987 1.613,3.6 3.6,3.6 1.987,0 3.6,-1.613 3.6,-3.6 z"
           style="fill:#000000;fill-opacity:1;fill-rule:evenodd;stroke:#000000;stroke-width:0.44999999;stroke-linecap:butt;stroke-linejoin:miter;stroke-miterlimit:10;stroke-dasharray:none;stroke-opacity:1"
           id="path3425"
           inkscape:connector-curvature="0" /><path
           d="m 393.3,122.64 c 0,-1.987 -1.613,-3.6 -3.6,-3.6 -1.987,0 -3.6,1.613 -3.6,3.6 0,1.987 1.613,3.6 3.6,3.6 1.987,0 3.6,-1.613 3.6,-3.6 z"
           style="fill:#000000;fill-opacity:1;fill-rule:evenodd;stroke:#000000;stroke-width:0.44999999;stroke-linecap:butt;stroke-linejoin:miter;stroke-miterlimit:10;stroke-dasharray:none;stroke-opacity:1"
           id="path3427"
           inkscape:connector-curvature="0" /><path
           d="m 205.2,149.64 c 0,-1.987 -1.613,-3.6 -3.6,-3.6 -1.987,0 -3.6,1.613 -3.6,3.6 0,1.987 1.613,3.6 3.6,3.6 1.987,0 3.6,-1.613 3.6,-3.6 z"
           style="fill:#000000;fill-opacity:1;fill-rule:evenodd;stroke:#000000;stroke-width:0.44999999;stroke-linecap:butt;stroke-linejoin:miter;stroke-miterlimit:10;stroke-dasharray:none;stroke-opacity:1"
           id="path3429"
           inkscape:connector-curvature="0" /><path
           d="m 231.36,148.8 c 0,-1.987 -1.613,-3.6 -3.6,-3.6 -1.987,0 -3.6,1.613 -3.6,3.6 0,1.987 1.613,3.6 3.6,3.6 1.987,0 3.6,-1.613 3.6,-3.6 z"
           style="fill:#000000;fill-opacity:1;fill-rule:evenodd;stroke:#000000;stroke-width:0.44999999;stroke-linecap:butt;stroke-linejoin:miter;stroke-miterlimit:10;stroke-dasharray:none;stroke-opacity:1"
           id="path3431"
           inkscape:connector-curvature="0" /><path
           d="m 259.2,148.8 c 0,-1.987 -1.613,-3.6 -3.6,-3.6 -1.987,0 -3.6,1.613 -3.6,3.6 0,1.987 1.613,3.6 3.6,3.6 1.987,0 3.6,-1.613 3.6,-3.6 z"
           style="fill:#000000;fill-opacity:1;fill-rule:evenodd;stroke:#000000;stroke-width:0.44999999;stroke-linecap:butt;stroke-linejoin:miter;stroke-miterlimit:10;stroke-dasharray:none;stroke-opacity:1"
           id="path3433"
           inkscape:connector-curvature="0" /><path
           d="m 292.56,148.8 c 0,-1.987 -1.613,-3.6 -3.6,-3.6 -1.987,0 -3.6,1.613 -3.6,3.6 0,1.987 1.613,3.6 3.6,3.6 1.987,0 3.6,-1.613 3.6,-3.6 z"
           style="fill:#000000;fill-opacity:1;fill-rule:evenodd;stroke:#000000;stroke-width:0.44999999;stroke-linecap:butt;stroke-linejoin:miter;stroke-miterlimit:10;stroke-dasharray:none;stroke-opacity:1"
           id="path3435"
           inkscape:connector-curvature="0" /><path
           d="m 325.8,148.8 c 0,-1.987 -1.613,-3.6 -3.6,-3.6 -1.987,0 -3.6,1.613 -3.6,3.6 0,1.987 1.613,3.6 3.6,3.6 1.987,0 3.6,-1.613 3.6,-3.6 z"
           style="fill:#000000;fill-opacity:1;fill-rule:evenodd;stroke:#000000;stroke-width:0.44999999;stroke-linecap:butt;stroke-linejoin:miter;stroke-miterlimit:10;stroke-dasharray:none;stroke-opacity:1"
           id="path3437"
           inkscape:connector-curvature="0" /><path
           d="m 356.4,148.8 c 0,-1.987 -1.613,-3.6 -3.6,-3.6 -1.987,0 -3.6,1.613 -3.6,3.6 0,1.987 1.613,3.6 3.6,3.6 1.987,0 3.6,-1.613 3.6,-3.6 z"
           style="fill:#000000;fill-opacity:1;fill-rule:evenodd;stroke:#000000;stroke-width:0.44999999;stroke-linecap:butt;stroke-linejoin:miter;stroke-miterlimit:10;stroke-dasharray:none;stroke-opacity:1"
           id="path3439"
           inkscape:connector-curvature="0" /><path
           d="m 382.5,148.8 c 0,-1.987 -1.613,-3.6 -3.6,-3.6 -1.987,0 -3.6,1.613 -3.6,3.6 0,1.987 1.613,3.6 3.6,3.6 1.987,0 3.6,-1.613 3.6,-3.6 z"
           style="fill:#000000;fill-opacity:1;fill-rule:evenodd;stroke:#000000;stroke-width:0.44999999;stroke-linecap:butt;stroke-linejoin:miter;stroke-miterlimit:10;stroke-dasharray:none;stroke-opacity:1"
           id="path3441"
           inkscape:connector-curvature="0" /><path
           d="m 412.2,148.8 c 0,-1.987 -1.613,-3.6 -3.6,-3.6 -1.987,0 -3.6,1.613 -3.6,3.6 0,1.987 1.613,3.6 3.6,3.6 1.987,0 3.6,-1.613 3.6,-3.6 z"
           style="fill:#000000;fill-opacity:1;fill-rule:evenodd;stroke:#000000;stroke-width:0.44999999;stroke-linecap:butt;stroke-linejoin:miter;stroke-miterlimit:10;stroke-dasharray:none;stroke-opacity:1"
           id="path3443"
           inkscape:connector-curvature="0" /></g></g><g
       id="g3445"><g
         id="g3447"
         clip-path="url(#clipPath3449)"><path
           d="m 443.7,148.8 c 0,-1.987 -1.613,-3.6 -3.6,-3.6 -1.987,0 -3.6,1.613 -3.6,3.6 0,1.987 1.613,3.6 3.6,3.6 1.987,0 3.6,-1.613 3.6,-3.6 z"
           style="fill:#000000;fill-opacity:1;fill-rule:evenodd;stroke:#000000;stroke-width:0.44999999;stroke-linecap:butt;stroke-linejoin:miter;stroke-miterlimit:10;stroke-dasharray:none;stroke-opacity:1"
           id="path3453"
           inkscape:connector-curvature="0" /><path
           d="m 1.8,50.86 279,0 m 0.06,-0.06 193.5,103.5 m -279.06,0.06 279,0 M 30.6,50.86 224.1,154.36 M 59.4,50.86 252.9,154.36 M 88.2,50.86 281.7,154.36 M 122.4,50.08 315.9,153.58 M 152.46,50.26 l 193.5,103.5 m -166.5,-103.5 193.5,103.5 m -162,-102.6 193.5,103.5 M 239.1,50.56 432.6,154.06 M 1.8,50.86 195.3,154.36 M 57.12,80.68 l 279,0 m -227.64,27 279,0 m -230.94,26.1 279,0"
           style="fill:none;stroke:#000000;stroke-width:0.44999999;stroke-linecap:butt;stroke-linejoin:miter;stroke-miterlimit:10;stroke-dasharray:none;stroke-opacity:1"
           id="path3455"
           inkscape:connector-curvature="0" /></g></g><g
       id="g3457"><g
         id="g3459"
         clip-path="url(#clipPath3461)"><path
           d="m 620.52,61.8 c 0,-1.987 -1.613,-3.6 -3.6,-3.6 -1.987,0 -3.6,1.613 -3.6,3.6 0,1.987 1.613,3.6 3.6,3.6 1.987,0 3.6,-1.613 3.6,-3.6 z"
           style="fill:#000000;fill-opacity:1;fill-rule:evenodd;stroke:#000000;stroke-width:0.44999999;stroke-linecap:butt;stroke-linejoin:miter;stroke-miterlimit:10;stroke-dasharray:none;stroke-opacity:1"
           id="path3465"
           inkscape:connector-curvature="0" /><path
           d="m 646.62,60.96 c 0,-1.987 -1.613,-3.6 -3.6,-3.6 -1.987,0 -3.6,1.613 -3.6,3.6 0,1.987 1.613,3.6 3.6,3.6 1.987,0 3.6,-1.613 3.6,-3.6 z"
           style="fill:#000000;fill-opacity:1;fill-rule:evenodd;stroke:#000000;stroke-width:0.44999999;stroke-linecap:butt;stroke-linejoin:miter;stroke-miterlimit:10;stroke-dasharray:none;stroke-opacity:1"
           id="path3467"
           inkscape:connector-curvature="0" /><path
           d="m 674.52,60.96 c 0,-1.987 -1.613,-3.6 -3.6,-3.6 -1.987,0 -3.6,1.613 -3.6,3.6 0,1.987 1.613,3.6 3.6,3.6 1.987,0 3.6,-1.613 3.6,-3.6 z"
           style="fill:#000000;fill-opacity:1;fill-rule:evenodd;stroke:#000000;stroke-width:0.44999999;stroke-linecap:butt;stroke-linejoin:miter;stroke-miterlimit:10;stroke-dasharray:none;stroke-opacity:1"
           id="path3469"
           inkscape:connector-curvature="0" /><path
           d="m 707.82,60.96 c 0,-1.987 -1.613,-3.6 -3.6,-3.6 -1.987,0 -3.6,1.613 -3.6,3.6 0,1.987 1.613,3.6 3.6,3.6 1.987,0 3.6,-1.613 3.6,-3.6 z"
           style="fill:#000000;fill-opacity:1;fill-rule:evenodd;stroke:#000000;stroke-width:0.44999999;stroke-linecap:butt;stroke-linejoin:miter;stroke-miterlimit:10;stroke-dasharray:none;stroke-opacity:1"
           id="path3471"
           inkscape:connector-curvature="0" /><path
           d="m 741.12,60.96 c 0,-1.987 -1.613,-3.6 -3.6,-3.6 -1.987,0 -3.6,1.613 -3.6,3.6 0,1.987 1.613,3.6 3.6,3.6 1.987,0 3.6,-1.613 3.6,-3.6 z"
           style="fill:#000000;fill-opacity:1;fill-rule:evenodd;stroke:#000000;stroke-width:0.44999999;stroke-linecap:butt;stroke-linejoin:miter;stroke-miterlimit:10;stroke-dasharray:none;stroke-opacity:1"
           id="path3473"
           inkscape:connector-curvature="0" /><path
           d="m 771.72,60.96 c 0,-1.987 -1.613,-3.6 -3.6,-3.6 -1.987,0 -3.6,1.613 -3.6,3.6 0,1.987 1.613,3.6 3.6,3.6 1.987,0 3.6,-1.613 3.6,-3.6 z"
           style="fill:#000000;fill-opacity:1;fill-rule:evenodd;stroke:#000000;stroke-width:0.44999999;stroke-linecap:butt;stroke-linejoin:miter;stroke-miterlimit:10;stroke-dasharray:none;stroke-opacity:1"
           id="path3475"
           inkscape:connector-curvature="0" /><path
           d="m 797.82,60.96 c 0,-1.987 -1.613,-3.6 -3.6,-3.6 -1.987,0 -3.6,1.613 -3.6,3.6 0,1.987 1.613,3.6 3.6,3.6 1.987,0 3.6,-1.613 3.6,-3.6 z"
           style="fill:#000000;fill-opacity:1;fill-rule:evenodd;stroke:#000000;stroke-width:0.44999999;stroke-linecap:butt;stroke-linejoin:miter;stroke-miterlimit:10;stroke-dasharray:none;stroke-opacity:1"
           id="path3477"
           inkscape:connector-curvature="0" /><path
           d="m 827.52,60.96 c 0,-1.987 -1.613,-3.6 -3.6,-3.6 -1.987,0 -3.6,1.613 -3.6,3.6 0,1.987 1.613,3.6 3.6,3.6 1.987,0 3.6,-1.613 3.6,-3.6 z"
           style="fill:#000000;fill-opacity:1;fill-rule:evenodd;stroke:#000000;stroke-width:0.44999999;stroke-linecap:butt;stroke-linejoin:miter;stroke-miterlimit:10;stroke-dasharray:none;stroke-opacity:1"
           id="path3479"
           inkscape:connector-curvature="0" /><path
           d="m 858.96,60.96 c 0,-1.987 -1.613,-3.6 -3.6,-3.6 -1.987,0 -3.6,1.613 -3.6,3.6 0,1.987 1.613,3.6 3.6,3.6 1.987,0 3.6,-1.613 3.6,-3.6 z"
           style="fill:#000000;fill-opacity:1;fill-rule:evenodd;stroke:#000000;stroke-width:0.44999999;stroke-linecap:butt;stroke-linejoin:miter;stroke-miterlimit:10;stroke-dasharray:none;stroke-opacity:1"
           id="path3481"
           inkscape:connector-curvature="0" /><path
           d="m 673.62,90.6 c 0,-1.987 -1.613,-3.6 -3.6,-3.6 -1.987,0 -3.6,1.613 -3.6,3.6 0,1.987 1.613,3.6 3.6,3.6 1.987,0 3.6,-1.613 3.6,-3.6 z"
           style="fill:#000000;fill-opacity:1;fill-rule:evenodd;stroke:#000000;stroke-width:0.44999999;stroke-linecap:butt;stroke-linejoin:miter;stroke-miterlimit:10;stroke-dasharray:none;stroke-opacity:1"
           id="path3483"
           inkscape:connector-curvature="0" /><path
           d="m 699.72,89.76 c 0,-1.987 -1.613,-3.6 -3.6,-3.6 -1.987,0 -3.6,1.613 -3.6,3.6 0,1.987 1.613,3.6 3.6,3.6 1.987,0 3.6,-1.613 3.6,-3.6 z"
           style="fill:#000000;fill-opacity:1;fill-rule:evenodd;stroke:#000000;stroke-width:0.44999999;stroke-linecap:butt;stroke-linejoin:miter;stroke-miterlimit:10;stroke-dasharray:none;stroke-opacity:1"
           id="path3485"
           inkscape:connector-curvature="0" /><path
           d="m 727.62,89.76 c 0,-1.987 -1.613,-3.6 -3.6,-3.6 -1.987,0 -3.6,1.613 -3.6,3.6 0,1.987 1.613,3.6 3.6,3.6 1.987,0 3.6,-1.613 3.6,-3.6 z"
           style="fill:#000000;fill-opacity:1;fill-rule:evenodd;stroke:#000000;stroke-width:0.44999999;stroke-linecap:butt;stroke-linejoin:miter;stroke-miterlimit:10;stroke-dasharray:none;stroke-opacity:1"
           id="path3487"
           inkscape:connector-curvature="0" /><path
           d="m 760.92,89.76 c 0,-1.987 -1.613,-3.6 -3.6,-3.6 -1.987,0 -3.6,1.613 -3.6,3.6 0,1.987 1.613,3.6 3.6,3.6 1.987,0 3.6,-1.613 3.6,-3.6 z"
           style="fill:#000000;fill-opacity:1;fill-rule:evenodd;stroke:#000000;stroke-width:0.44999999;stroke-linecap:butt;stroke-linejoin:miter;stroke-miterlimit:10;stroke-dasharray:none;stroke-opacity:1"
           id="path3489"
           inkscape:connector-curvature="0" /><path
           d="m 794.22,89.76 c 0,-1.987 -1.613,-3.6 -3.6,-3.6 -1.987,0 -3.6,1.613 -3.6,3.6 0,1.987 1.613,3.6 3.6,3.6 1.987,0 3.6,-1.613 3.6,-3.6 z"
           style="fill:#000000;fill-opacity:1;fill-rule:evenodd;stroke:#000000;stroke-width:0.44999999;stroke-linecap:butt;stroke-linejoin:miter;stroke-miterlimit:10;stroke-dasharray:none;stroke-opacity:1"
           id="path3491"
           inkscape:connector-curvature="0" /><path
           d="m 824.76,89.76 c 0,-1.987 -1.613,-3.6 -3.6,-3.6 -1.987,0 -3.6,1.613 -3.6,3.6 0,1.987 1.613,3.6 3.6,3.6 1.987,0 3.6,-1.613 3.6,-3.6 z"
           style="fill:#000000;fill-opacity:1;fill-rule:evenodd;stroke:#000000;stroke-width:0.44999999;stroke-linecap:butt;stroke-linejoin:miter;stroke-miterlimit:10;stroke-dasharray:none;stroke-opacity:1"
           id="path3493"
           inkscape:connector-curvature="0" /><path
           d="m 850.92,89.76 c 0,-1.987 -1.613,-3.6 -3.6,-3.6 -1.987,0 -3.6,1.613 -3.6,3.6 0,1.987 1.613,3.6 3.6,3.6 1.987,0 3.6,-1.613 3.6,-3.6 z"
           style="fill:#000000;fill-opacity:1;fill-rule:evenodd;stroke:#000000;stroke-width:0.44999999;stroke-linecap:butt;stroke-linejoin:miter;stroke-miterlimit:10;stroke-dasharray:none;stroke-opacity:1"
           id="path3495"
           inkscape:connector-curvature="0" /><path
           d="m 880.56,89.76 c 0,-1.987 -1.613,-3.6 -3.6,-3.6 -1.987,0 -3.6,1.613 -3.6,3.6 0,1.987 1.613,3.6 3.6,3.6 1.987,0 3.6,-1.613 3.6,-3.6 z"
           style="fill:#000000;fill-opacity:1;fill-rule:evenodd;stroke:#000000;stroke-width:0.44999999;stroke-linecap:butt;stroke-linejoin:miter;stroke-miterlimit:10;stroke-dasharray:none;stroke-opacity:1"
           id="path3497"
           inkscape:connector-curvature="0" /><path
           d="m 912.12,89.76 c 0,-1.987 -1.613,-3.6 -3.6,-3.6 -1.987,0 -3.6,1.613 -3.6,3.6 0,1.987 1.613,3.6 3.6,3.6 1.987,0 3.6,-1.613 3.6,-3.6 z"
           style="fill:#000000;fill-opacity:1;fill-rule:evenodd;stroke:#000000;stroke-width:0.44999999;stroke-linecap:butt;stroke-linejoin:miter;stroke-miterlimit:10;stroke-dasharray:none;stroke-opacity:1"
           id="path3499"
           inkscape:connector-curvature="0" /><path
           d="m 724.92,117.6 c 0,-1.987 -1.613,-3.6 -3.6,-3.6 -1.987,0 -3.6,1.613 -3.6,3.6 0,1.987 1.613,3.6 3.6,3.6 1.987,0 3.6,-1.613 3.6,-3.6 z"
           style="fill:#000000;fill-opacity:1;fill-rule:evenodd;stroke:#000000;stroke-width:0.44999999;stroke-linecap:butt;stroke-linejoin:miter;stroke-miterlimit:10;stroke-dasharray:none;stroke-opacity:1"
           id="path3501"
           inkscape:connector-curvature="0" /><path
           d="m 751.02,116.76 c 0,-1.987 -1.613,-3.6 -3.6,-3.6 -1.987,0 -3.6,1.613 -3.6,3.6 0,1.987 1.613,3.6 3.6,3.6 1.987,0 3.6,-1.613 3.6,-3.6 z"
           style="fill:#000000;fill-opacity:1;fill-rule:evenodd;stroke:#000000;stroke-width:0.44999999;stroke-linecap:butt;stroke-linejoin:miter;stroke-miterlimit:10;stroke-dasharray:none;stroke-opacity:1"
           id="path3503"
           inkscape:connector-curvature="0" /><path
           d="m 778.92,116.76 c 0,-1.987 -1.613,-3.6 -3.6,-3.6 -1.987,0 -3.6,1.613 -3.6,3.6 0,1.987 1.613,3.6 3.6,3.6 1.987,0 3.6,-1.613 3.6,-3.6 z"
           style="fill:#000000;fill-opacity:1;fill-rule:evenodd;stroke:#000000;stroke-width:0.44999999;stroke-linecap:butt;stroke-linejoin:miter;stroke-miterlimit:10;stroke-dasharray:none;stroke-opacity:1"
           id="path3505"
           inkscape:connector-curvature="0" /><path
           d="m 812.22,116.76 c 0,-1.987 -1.613,-3.6 -3.6,-3.6 -1.987,0 -3.6,1.613 -3.6,3.6 0,1.987 1.613,3.6 3.6,3.6 1.987,0 3.6,-1.613 3.6,-3.6 z"
           style="fill:#000000;fill-opacity:1;fill-rule:evenodd;stroke:#000000;stroke-width:0.44999999;stroke-linecap:butt;stroke-linejoin:miter;stroke-miterlimit:10;stroke-dasharray:none;stroke-opacity:1"
           id="path3507"
           inkscape:connector-curvature="0" /><path
           d="m 845.52,116.76 c 0,-1.987 -1.613,-3.6 -3.6,-3.6 -1.987,0 -3.6,1.613 -3.6,3.6 0,1.987 1.613,3.6 3.6,3.6 1.987,0 3.6,-1.613 3.6,-3.6 z"
           style="fill:#000000;fill-opacity:1;fill-rule:evenodd;stroke:#000000;stroke-width:0.44999999;stroke-linecap:butt;stroke-linejoin:miter;stroke-miterlimit:10;stroke-dasharray:none;stroke-opacity:1"
           id="path3509"
           inkscape:connector-curvature="0" /><path
           d="m 876.12,116.76 c 0,-1.987 -1.613,-3.6 -3.6,-3.6 -1.987,0 -3.6,1.613 -3.6,3.6 0,1.987 1.613,3.6 3.6,3.6 1.987,0 3.6,-1.613 3.6,-3.6 z"
           style="fill:#000000;fill-opacity:1;fill-rule:evenodd;stroke:#000000;stroke-width:0.44999999;stroke-linecap:butt;stroke-linejoin:miter;stroke-miterlimit:10;stroke-dasharray:none;stroke-opacity:1"
           id="path3511"
           inkscape:connector-curvature="0" /><path
           d="m 902.16,116.76 c 0,-1.987 -1.613,-3.6 -3.6,-3.6 -1.987,0 -3.6,1.613 -3.6,3.6 0,1.987 1.613,3.6 3.6,3.6 1.987,0 3.6,-1.613 3.6,-3.6 z"
           style="fill:#000000;fill-opacity:1;fill-rule:evenodd;stroke:#000000;stroke-width:0.44999999;stroke-linecap:butt;stroke-linejoin:miter;stroke-miterlimit:10;stroke-dasharray:none;stroke-opacity:1"
           id="path3513"
           inkscape:connector-curvature="0" /><path
           d="m 931.92,116.76 c 0,-1.987 -1.613,-3.6 -3.6,-3.6 -1.987,0 -3.6,1.613 -3.6,3.6 0,1.987 1.613,3.6 3.6,3.6 1.987,0 3.6,-1.613 3.6,-3.6 z"
           style="fill:#000000;fill-opacity:1;fill-rule:evenodd;stroke:#000000;stroke-width:0.44999999;stroke-linecap:butt;stroke-linejoin:miter;stroke-miterlimit:10;stroke-dasharray:none;stroke-opacity:1"
           id="path3515"
           inkscape:connector-curvature="0" /><path
           d="m 963.36,116.76 c 0,-1.987 -1.613,-3.6 -3.6,-3.6 -1.987,0 -3.6,1.613 -3.6,3.6 0,1.987 1.613,3.6 3.6,3.6 1.987,0 3.6,-1.613 3.6,-3.6 z"
           style="fill:#000000;fill-opacity:1;fill-rule:evenodd;stroke:#000000;stroke-width:0.44999999;stroke-linecap:butt;stroke-linejoin:miter;stroke-miterlimit:10;stroke-dasharray:none;stroke-opacity:1"
           id="path3517"
           inkscape:connector-curvature="0" /><path
           d="m 775.32,143.76 c 0,-1.987 -1.613,-3.6 -3.6,-3.6 -1.987,0 -3.6,1.613 -3.6,3.6 0,1.987 1.613,3.6 3.6,3.6 1.987,0 3.6,-1.613 3.6,-3.6 z"
           style="fill:#000000;fill-opacity:1;fill-rule:evenodd;stroke:#000000;stroke-width:0.44999999;stroke-linecap:butt;stroke-linejoin:miter;stroke-miterlimit:10;stroke-dasharray:none;stroke-opacity:1"
           id="path3519"
           inkscape:connector-curvature="0" /><path
           d="m 801.42,142.8 c 0,-1.987 -1.613,-3.6 -3.6,-3.6 -1.987,0 -3.6,1.613 -3.6,3.6 0,1.987 1.613,3.6 3.6,3.6 1.987,0 3.6,-1.613 3.6,-3.6 z"
           style="fill:#000000;fill-opacity:1;fill-rule:evenodd;stroke:#000000;stroke-width:0.44999999;stroke-linecap:butt;stroke-linejoin:miter;stroke-miterlimit:10;stroke-dasharray:none;stroke-opacity:1"
           id="path3521"
           inkscape:connector-curvature="0" /><path
           d="m 829.32,142.8 c 0,-1.987 -1.613,-3.6 -3.6,-3.6 -1.987,0 -3.6,1.613 -3.6,3.6 0,1.987 1.613,3.6 3.6,3.6 1.987,0 3.6,-1.613 3.6,-3.6 z"
           style="fill:#000000;fill-opacity:1;fill-rule:evenodd;stroke:#000000;stroke-width:0.44999999;stroke-linecap:butt;stroke-linejoin:miter;stroke-miterlimit:10;stroke-dasharray:none;stroke-opacity:1"
           id="path3523"
           inkscape:connector-curvature="0" /><path
           d="m 862.56,142.8 c 0,-1.987 -1.613,-3.6 -3.6,-3.6 -1.987,0 -3.6,1.613 -3.6,3.6 0,1.987 1.613,3.6 3.6,3.6 1.987,0 3.6,-1.613 3.6,-3.6 z"
           style="fill:#000000;fill-opacity:1;fill-rule:evenodd;stroke:#000000;stroke-width:0.44999999;stroke-linecap:butt;stroke-linejoin:miter;stroke-miterlimit:10;stroke-dasharray:none;stroke-opacity:1"
           id="path3525"
           inkscape:connector-curvature="0" /><path
           d="m 895.92,142.8 c 0,-1.987 -1.613,-3.6 -3.6,-3.6 -1.987,0 -3.6,1.613 -3.6,3.6 0,1.987 1.613,3.6 3.6,3.6 1.987,0 3.6,-1.613 3.6,-3.6 z"
           style="fill:#000000;fill-opacity:1;fill-rule:evenodd;stroke:#000000;stroke-width:0.44999999;stroke-linecap:butt;stroke-linejoin:miter;stroke-miterlimit:10;stroke-dasharray:none;stroke-opacity:1"
           id="path3527"
           inkscape:connector-curvature="0" /><path
           d="m 926.52,142.8 c 0,-1.987 -1.613,-3.6 -3.6,-3.6 -1.987,0 -3.6,1.613 -3.6,3.6 0,1.987 1.613,3.6 3.6,3.6 1.987,0 3.6,-1.613 3.6,-3.6 z"
           style="fill:#000000;fill-opacity:1;fill-rule:evenodd;stroke:#000000;stroke-width:0.44999999;stroke-linecap:butt;stroke-linejoin:miter;stroke-miterlimit:10;stroke-dasharray:none;stroke-opacity:1"
           id="path3529"
           inkscape:connector-curvature="0" /><path
           d="m 952.56,142.8 c 0,-1.987 -1.613,-3.6 -3.6,-3.6 -1.987,0 -3.6,1.613 -3.6,3.6 0,1.987 1.613,3.6 3.6,3.6 1.987,0 3.6,-1.613 3.6,-3.6 z"
           style="fill:#000000;fill-opacity:1;fill-rule:evenodd;stroke:#000000;stroke-width:0.44999999;stroke-linecap:butt;stroke-linejoin:miter;stroke-miterlimit:10;stroke-dasharray:none;stroke-opacity:1"
           id="path3531"
           inkscape:connector-curvature="0" /><path
           d="m 982.32,142.8 c 0,-1.987 -1.613,-3.6 -3.6,-3.6 -1.987,0 -3.6,1.613 -3.6,3.6 0,1.987 1.613,3.6 3.6,3.6 1.987,0 3.6,-1.613 3.6,-3.6 z"
           style="fill:#000000;fill-opacity:1;fill-rule:evenodd;stroke:#000000;stroke-width:0.44999999;stroke-linecap:butt;stroke-linejoin:miter;stroke-miterlimit:10;stroke-dasharray:none;stroke-opacity:1"
           id="path3533"
           inkscape:connector-curvature="0" /><path
           d="m 1013.76,142.8 c 0,-1.987 -1.613,-3.6 -3.6,-3.6 -1.987,0 -3.6,1.613 -3.6,3.6 0,1.987 1.613,3.6 3.6,3.6 1.987,0 3.6,-1.613 3.6,-3.6 z"
           style="fill:#000000;fill-opacity:1;fill-rule:evenodd;stroke:#000000;stroke-width:0.44999999;stroke-linecap:butt;stroke-linejoin:miter;stroke-miterlimit:10;stroke-dasharray:none;stroke-opacity:1"
           id="path3535"
           inkscape:connector-curvature="0" /></g></g><g
       id="g3537"><g
         id="g3539"
         clip-path="url(#clipPath3541)"><path
           d="m 577.14,47.32 279,0 m 0.06,-0.06 193.5,103.5 m -279.06,0.06 279,0 m -443.7,-103.5 193.5,103.5 m -164.7,-103.5 193.5,103.5 m -164.7,-103.5 193.5,103.5 M 697.74,46.54 891.24,150.04 M 727.8,46.72 921.3,150.22 M 754.8,46.72 948.3,150.22 m -162,-102.6 193.5,103.5 m -165.36,-104.1 193.5,103.5 m -430.8,-103.2 193.5,103.5 m -138.18,-73.68 279,0 m -227.64,27 279,0 m -230.94,26.1 279,0 m -584.76,65.4 180.9,0.12 m 12.6,103.38 176.82,-0.3 m -341.52,-103.2 193.5,103.5 m -164.7,-103.5 193.5,103.5 m -164.7,-103.5 193.5,103.5 m -159.3,-104.28 193.5,103.5 m -163.44,-103.32 193.5,103.5 m -166.5,-103.5 193.5,103.5 m -371.16,-102.9 193.5,103.5 m -138.18,-73.68 178.62,-0.42 m -127.26,27.42 178.56,0.48 m -130.5,25.62 179.58,0.48 m -318.18,-83.22 193.5,103.5 M 467.4,196 660.9,299.5 m -162.12,-102.54 193.5,103.5 m -164.04,-104.7 193.5,103.5 M 564.12,196.9 757.62,300.4 m -166.74,-104.76 193.5,103.5"
           style="fill:none;stroke:#000000;stroke-width:0.44999999;stroke-linecap:butt;stroke-linejoin:miter;stroke-miterlimit:10;stroke-dasharray:none;stroke-opacity:1"
           id="path3545"
           inkscape:connector-curvature="0" /><path
           d="m 622.8,334.36 135,0 0,-13.5 -135,0 0,13.5 z m -45,-319.5 135,0 0,-13.5 -135,0 0,13.5 z"
           style="fill:none;stroke:#ffffff;stroke-width:0.44999999;stroke-linecap:butt;stroke-linejoin:miter;stroke-miterlimit:10;stroke-dasharray:none;stroke-opacity:1"
           id="path3547"
           inkscape:connector-curvature="0" /></g></g><g
       id="g3549"><g
         id="g3551"
         clip-path="url(#clipPath3553)"><g
           id="g3557"
           clip-path="url(#clipPath3559)"><path
             d="m 460.32,210.16 -0.06,0 -0.06,0.06 -0.24,0.06 -0.3,0.12 -0.42,0.18 -0.6,0.24 -0.72,0.36 -0.96,0.36 -1.14,0.48 -1.32,0.48 -1.5,0.6 -1.74,0.72 -1.92,0.72 -2.16,0.78 -2.28,0.9 -2.52,0.9 -2.64,0.96 -2.82,1.02 -2.94,1.02 -3.06,1.02 -3.18,1.08 -3.3,1.02 -3.42,1.08 -3.42,1.02 -3.6,0.96 -3.6,1.02 -3.66,0.9 -3.72,0.9 -3.78,0.84 -3.78,0.78 -3.9,0.72 -3.9,0.66 -4.02,0.54 -4.02,0.48 -4.08,0.42 -4.2,0.24 -4.2,0.18 -4.32,0.12 -4.38,-0.06 -4.44,-0.24 -4.56,-0.3 -4.62,-0.48 -4.68,-0.66 -4.8,-0.84 -4.86,-1.02 -4.86,-1.14 -4.92,-1.44 -4.92,-1.56 -4.86,-1.8 -4.98,-2.1 -4.8,-2.22 -4.68,-2.4 -4.5,-2.52 -4.26,-2.64 -4.08,-2.76 -3.84,-2.76 -3.66,-2.88 -3.48,-2.94 -3.3,-2.94 -3.12,-3 -3,-3 -2.82,-3.06 -2.7,-3.12 -2.52,-3.12 -2.46,-3.12 -2.28,-3.18 -2.22,-3.18 -2.16,-3.18 -2.04,-3.24 -1.98,-3.18 -1.86,-3.24 -1.8,-3.18 -1.74,-3.18 -1.62,-3.12 -1.56,-3.06 -2.94,-6 -1.32,-2.82 -1.26,-2.76 -1.2,-2.64 -1.08,-2.46 -1.02,-2.34 -0.9,-2.1 -0.84,-1.98 -0.72,-1.8 -0.66,-1.56 -0.54,-1.38 -0.48,-1.2 -0.42,-0.96 -0.3,-0.84 -0.24,-0.6 -0.18,-0.48 -0.24,-0.66"
             style="fill:none;stroke:#000000;stroke-width:3.5999999;stroke-linecap:butt;stroke-linejoin:bevel;stroke-miterlimit:10;stroke-dasharray:none;stroke-opacity:1"
             id="path3563"
             inkscape:connector-curvature="0" /></g></g></g><g
       id="g3565"><g
         id="g3567"
         clip-path="url(#clipPath3569)"><path
           d="m 215.34,125.08 3.9,-9.12 8.76,4.5 -12.66,4.62 z"
           style="fill:#000000;fill-opacity:1;fill-rule:evenodd;stroke:#000000;stroke-width:0.44999999;stroke-linecap:butt;stroke-linejoin:miter;stroke-miterlimit:10;stroke-dasharray:none;stroke-opacity:1"
           id="path3573"
           inkscape:connector-curvature="0" /></g></g><g
       id="g3575"><g
         id="g3577"
         clip-path="url(#clipPath3579)"><g
           id="g3583"
           clip-path="url(#clipPath3585)"><path
             d="m 616.02,208.36 0.06,0.06 0.12,0.06 0.24,0.18 0.42,0.24 2.16,1.44 1.14,0.72 1.26,0.9 1.5,0.9 1.68,1.08 1.86,1.14 2.04,1.2 2.1,1.26 4.56,2.52 4.92,2.52 2.52,1.2 2.52,1.14 2.52,1.02 2.58,0.96 2.58,0.84 2.52,0.72 2.58,0.54 2.52,0.42 2.52,0.24 2.52,0 2.46,-0.18 2.46,-0.48 2.46,-0.66 2.4,-1.02 2.4,-1.26 2.28,-1.68 2.22,-1.98 2.1,-2.34 1.98,-2.7 1.56,-2.64 1.38,-2.82 1.26,-3 1.08,-3.18 0.9,-3.24 0.84,-3.36 0.66,-3.48 0.54,-3.48 0.42,-3.54 0.36,-3.6 0.24,-3.6 0.12,-3.66 0.06,-3.72 -0.06,-3.66 -0.06,-3.78 -0.18,-3.72 -0.18,-3.78 -0.6,-7.56 -0.72,-7.56 -0.42,-3.72 -0.48,-3.72 -0.48,-3.6 -0.42,-3.54 -0.48,-3.42 -0.48,-3.3 -0.48,-3.12 -0.48,-3 -0.42,-2.76 -0.42,-2.58 -0.36,-2.34 -0.36,-2.1 -0.3,-1.8 -0.3,-1.62 -0.24,-1.32 -0.18,-1.08 -0.12,-0.84 -0.12,-0.6 -0.18,-0.96"
             style="fill:none;stroke:#000000;stroke-width:3.5999999;stroke-linecap:butt;stroke-linejoin:bevel;stroke-miterlimit:10;stroke-dasharray:none;stroke-opacity:1"
             id="path3589"
             inkscape:connector-curvature="0" /></g></g></g><g
       id="g3591"><g
         id="g3593"
         clip-path="url(#clipPath3595)"><path
           d="m 681.84,107.26 5.34,-8.34 7.92,5.88 -13.26,2.46 z"
           style="fill:#000000;fill-opacity:1;fill-rule:evenodd;stroke:#000000;stroke-width:0.44999999;stroke-linecap:butt;stroke-linejoin:miter;stroke-miterlimit:10;stroke-dasharray:none;stroke-opacity:1"
           id="path3599"
           inkscape:connector-curvature="0" /></g></g><g
       id="g3601"><g
         id="g3603"
         clip-path="url(#clipPath3605)"><g
           id="g3609"
           clip-path="url(#clipPath3611)"><path
             d="m 688.92,102.16 0,0.12 0.06,0.18 0.06,0.36 0.18,0.66 0.18,0.84 0.24,1.14 0.66,3.3 0.48,2.1 0.54,2.4 0.6,2.7 0.66,2.94 0.78,3.24 0.78,3.42 0.9,3.66 0.9,3.72 0.96,3.84 2.04,7.92 1.08,4.02 1.14,3.96 1.14,3.9 1.2,3.84 1.26,3.78 1.26,3.66 1.32,3.54 1.32,3.42 1.38,3.3 1.44,3.12 1.5,2.94 1.56,2.7 1.68,2.52 1.68,2.28 1.74,1.98 1.86,1.74 1.92,1.38 1.92,0.96 2.04,0.6 2.04,0.12 1.92,-0.3 1.98,-0.78 1.86,-1.08 1.86,-1.44 1.74,-1.8 1.74,-1.98 1.68,-2.28 1.56,-2.52 1.56,-2.64 1.44,-2.88 1.44,-3.06 1.38,-3.18 1.38,-3.3 1.26,-3.48 1.26,-3.54 1.26,-3.66 1.2,-3.72 2.28,-7.68 2.16,-7.8 1.02,-3.9 1.02,-3.84 0.96,-3.78 0.9,-3.72 0.9,-3.54 0.78,-3.42 0.78,-3.24 0.66,-3 0.66,-2.76 0.54,-2.46 0.54,-2.22 0.42,-1.92 0.36,-1.56 0.24,-1.32 0.24,-1.08 0.18,-0.78 0.24,-1.14"
             style="fill:none;stroke:#000000;stroke-width:3.5999999;stroke-linecap:butt;stroke-linejoin:bevel;stroke-miterlimit:10;stroke-dasharray:10.8;stroke-dashoffset:0;stroke-opacity:1"
             id="path3615"
             inkscape:connector-curvature="0" /></g></g></g><g
       id="g3617"><g
         id="g3619"
         clip-path="url(#clipPath3621)"><path
           d="m 762.66,103.72 8.1,-5.7 5.1,8.46 -13.2,-2.76 z"
           style="fill:#000000;fill-opacity:1;fill-rule:evenodd;stroke:#000000;stroke-width:0.44999999;stroke-linecap:butt;stroke-linejoin:miter;stroke-miterlimit:10;stroke-dasharray:none;stroke-opacity:1"
           id="path3625"
           inkscape:connector-curvature="0" /><text
           transform="matrix(1,0,0,-1,1.8,23.86)"
           style="font-variant:normal;font-weight:normal;font-size:30px;font-family:Times;-inkscape-font-specification:Times-Roman;writing-mode:lr-tb;fill:#000000;fill-opacity:1;fill-rule:nonzero;stroke:none"
           id="text3627"><tspan
             x="0 16.68 25.02 40.02 53.34 68.339996 75.839996 85.830002 109.17 122.49 137.49001 150.81 158.31 179.97 194.97 218.31 231.63 239.97"
             y="0"
             sodipodi:role="line"
             id="tspan3629">Fixed Image Domain</tspan></text>
<text
           transform="matrix(1,0,0,-1,577.8,19.36)"
           style="font-variant:normal;font-weight:normal;font-size:30px;font-family:Times;-inkscape-font-specification:Times-Roman;writing-mode:lr-tb;fill:#000000;fill-opacity:1;fill-rule:nonzero;stroke:none"
           id="text3631"><tspan
             x="0 26.67 41.669998 56.669998 65.010002 80.010002 95.010002 102.51 112.5 135.84 149.16 164.16 177.48 184.98 206.64 221.64 244.98 258.29999 266.64001"
             y="0"
             sodipodi:role="line"
             id="tspan3633">Moving Image Domain</tspan></text>
<text
           transform="matrix(1,0,0,-1,600.3,307.36)"
           style="font-variant:normal;font-weight:normal;font-size:30px;font-family:Times;-inkscape-font-specification:Times-Roman;writing-mode:lr-tb;fill:#000000;fill-opacity:1;fill-rule:nonzero;stroke:none"
           id="text3635"><tspan
             x="0 21.66 30 39.990002 48.330002 63.330002 76.650002 84.989998 92.489998 102.48 125.82 139.14 154.14 167.46001 174.96001 196.62 211.62 234.96001 248.28 256.62"
             y="0"
             sodipodi:role="line"
             id="tspan3637">Virtual Image Domain</tspan></text>
<text
           transform="matrix(1,0,0,-1,753.3,181.38)"
           style="font-variant:normal;font-weight:normal;font-size:24.78709984px;font-family:CMMI12;-inkscape-font-specification:CMMI12;writing-mode:lr-tb;fill:#000000;fill-opacity:1;fill-rule:nonzero;stroke:none"
           id="text3639"><tspan
             x="0"
             y="0"
             id="tspan3641">T</tspan></text>
<text
           transform="matrix(1,0,0,-1,767.58,177.3)"
           style="font-variant:normal;font-weight:normal;font-size:20.66259956px;font-family:CMMI12;-inkscape-font-specification:CMMI12;writing-mode:lr-tb;fill:#000000;fill-opacity:1;fill-rule:nonzero;stroke:none"
           id="text3643"><tspan
             x="0 9.744482 19.922878"
             y="0"
             sodipodi:role="line"
             id="tspan3645">opt</tspan></text>
<text
           transform="matrix(1,0,0,-1,312.3,239.94)"
           style="font-variant:normal;font-weight:normal;font-size:24.78709984px;font-family:CMMI12;-inkscape-font-specification:CMMI12;writing-mode:lr-tb;fill:#000000;fill-opacity:1;fill-rule:nonzero;stroke:none"
           id="text3647"><tspan
             x="0"
             y="0"
             id="tspan3649">T</tspan></text>
<text
           transform="matrix(1,0,0,-1,326.58,234.06)"
           style="font-variant:normal;font-weight:normal;font-size:20.66259956px;font-family:CMMI12;-inkscape-font-specification:CMMI12;writing-mode:lr-tb;fill:#000000;fill-opacity:1;fill-rule:nonzero;stroke:none"
           id="text3651"><tspan
             x="0"
             y="0"
             id="tspan3653">f</tspan></text>
<text
           transform="matrix(1,0,0,-1,694.86,217.38)"
           style="font-variant:normal;font-weight:normal;font-size:24.78709984px;font-family:CMMI12;-inkscape-font-specification:CMMI12;writing-mode:lr-tb;fill:#000000;fill-opacity:1;fill-rule:nonzero;stroke:none"
           id="text3655"><tspan
             x="0"
             y="0"
             id="tspan3657">T</tspan></text>
<text
           transform="matrix(1,0,0,-1,709.14,213.66)"
           style="font-variant:normal;font-weight:normal;font-size:20.66259956px;font-family:CMMI12;-inkscape-font-specification:CMMI12;writing-mode:lr-tb;fill:#000000;fill-opacity:1;fill-rule:nonzero;stroke:none"
           id="text3659"><tspan
             x="0"
             y="0"
             id="tspan3661">m</tspan></text>
</g></g></g></svg>